# xmcd
#
# Track frame offsets:
#  150
#  13660
#  25797
#  37503
#  55226
#  69118
#  81686
#  94894
#  106580
#  118811
#  130929
#  145108
#  157031
#  170598
#  183979
#  198434
#  211661
#  222146
#  235761
#  249839
#  262861
#  277842
#
# Disc length: 3880 seconds
#
# Revision: 0
# Processed by: cddbd v1.5.1PL2 Copyright (c) Steve Scherf et al.
# Submitted via: Collectorz.com_Music_Collector 6.9
#
DISCID=200f2616
DTITLE=Howlin' Wolf - Moanin' The Blues
DYEAR=2005
DGENRE=Blues
TTITLE0=The Wolf Is At Your Door
TTITLE1=How Many More Years
TTITLE2=Morning At Midnight
TTITLE3=Crying At Daybreak
TTITLE4=Riding In The Moonlight
TTITLE5=I Want Your Picture
TTITLE6=My Baby Stole Off
TTITLE7=Saddle My Pony
TTITLE8=Howlin' Wolf Boogie
TTITLE9=Getting Old And Gray
TTITLE10=Mr. Highway Many
TTITLE11=Oh! Red
TTITLE12=My Last Affair
TTITLE13=No Place To Go
TTITLE14=Worried All The Time
TTITLE15=Evil Is Going On
TTITLE16=All Night Boogie
TTITLE17=I Love My Baby
TTITLE18=Rockin' Daddy
TTITLE19=Forty-Four
TTITLE20=I'll Be Around
TTITLE21=Baby How Long
EXTD=
EXTT0=
EXTT1=
EXTT2=
EXTT3=
EXTT4=
EXTT5=
EXTT6=
EXTT7=
EXTT8=
EXTT9=
EXTT10=
EXTT11=
EXTT12=
EXTT13=
EXTT14=
EXTT15=
EXTT16=
EXTT17=
EXTT18=
EXTT19=
EXTT20=
EXTT21=
PLAYORDER=
